<svg xmlns="http://www.w3.org/2000/svg" viewBox="0 0 200 90"><title>digitalTutorials_smp_200x180</title><g id="FLT_ART_WORKS" data-name="FLT ART WORKS"><path d="M142,10.46a2.74,2.74,0,0,0-2.74-2.73H47.85a2.74,2.74,0,0,0-2.71,2.73V70.85H142Z" style="fill:#fff"/><path d="M149.52,73.73H106.44v1a.88.88,0,0,1-.86.86H81.48a.86.86,0,0,1-.85-.86v-1h-43a2.06,2.06,0,0,0-2.08,2.06h0v4.54a2.08,2.08,0,0,0,2.08,2.07H149.52a2,2,0,0,0,2-2V75.68A2,2,0,0,0,149.52,73.73Z" style="fill:#fff"/><path d="M140.46,69.35H46.61V10.46a1.23,1.23,0,0,1,1.23-1.23h91.38a1.23,1.23,0,0,1,1.24,1.22h0Z" style="fill:none;stroke:#1a5336;stroke-linecap:square;stroke-miterlimit:10;stroke-width:3px"/><path d="M149.52,73.73H106.44v1a.88.88,0,0,1-.86.86H81.48a.86.86,0,0,1-.85-.86v-1h-43a2.06,2.06,0,0,0-2.08,2.06h0v4.54a2.08,2.08,0,0,0,2.08,2.07H149.52a2,2,0,0,0,2-2V75.68A2,2,0,0,0,149.52,73.73Z" style="fill:#1a5336"/><polygon points="164.87 59.42 170.9 65.45 172.54 63.81 166.51 57.78 168.2 56.09 159.7 52.6 163.18 61.11 164.87 59.42" style="fill:#00b624"/><polygon points="170.06 56.18 156.16 50.48 161.86 64.39 164.08 62.17 170.11 68.19 173.87 64.43 167.84 58.4 170.06 56.18" style="fill:none;stroke:#1a5336;stroke-linecap:square;stroke-miterlimit:10;stroke-width:3px"/><path d="M100.11,21.44s-6.37-.14-6.37,2.73V58a.22.22,0,0,0,.33.19c.68-.43,2.49-1.29,6-1.29h16.82V21.45Z" style="fill:#fff"/><path d="M87.25,21.44H70.43V56.88H87.25c3.56,0,5.36.86,6,1.29a.21.21,0,0,0,.32-.19V24.17C93.63,21.3,87.25,21.44,87.25,21.44Z" style="fill:#fff"/><path d="M100.11,56.89h16.82V21.45H100.11s-6.37-.14-6.37,2.73V58a.22.22,0,0,0,.33.19C94.74,57.75,96.55,56.89,100.11,56.89Z" style="fill:none;stroke:#1a5336;stroke-linecap:square;stroke-miterlimit:10;stroke-width:3px"/><line x1="76.57" y1="39.82" x2="87.49" y2="39.83" style="fill:none;stroke:#1a5336;stroke-linecap:square;stroke-miterlimit:10;stroke-width:3px"/><line x1="76.57" y1="33.41" x2="87.49" y2="33.42" style="fill:none;stroke:#1a5336;stroke-linecap:square;stroke-miterlimit:10;stroke-width:3px"/><line x1="76.57" y1="46.23" x2="87.49" y2="46.24" style="fill:none;stroke:#1a5336;stroke-linecap:square;stroke-miterlimit:10;stroke-width:3px"/><line x1="99.85" y1="39.82" x2="110.77" y2="39.83" style="fill:none;stroke:#1a5336;stroke-linecap:square;stroke-miterlimit:10;stroke-width:3px"/><line x1="99.85" y1="33.41" x2="110.77" y2="33.42" style="fill:none;stroke:#1a5336;stroke-linecap:square;stroke-miterlimit:10;stroke-width:3px"/><line x1="99.84" y1="46.23" x2="110.76" y2="46.24" style="fill:none;stroke:#1a5336;stroke-linecap:square;stroke-miterlimit:10;stroke-width:3px"/><path d="M87.25,56.89H70.42V21.43H87.25s6.38-.14,6.38,2.73V58a.21.21,0,0,1-.32.19C92.61,57.75,90.81,56.89,87.25,56.89Z" style="fill:none;stroke:#1a5336;stroke-linecap:square;stroke-miterlimit:10;stroke-width:3px"/><path d="M89.05,58.49A4.82,4.82,0,0,1,91.81,60h3.65a4.82,4.82,0,0,1,2.76-1.53Z" style="fill:#1a5336"/></g></svg>