<svg xmlns="http://www.w3.org/2000/svg" viewBox="0 0 200 90"><title>easyWebTDApp_smp_200x90</title><g id="FLT_ART_WORKS" data-name="FLT ART WORKS"><path d="M140.13,71.84H43.27V11.47A2.74,2.74,0,0,1,46,8.73h91.38a2.74,2.74,0,0,1,2.74,2.74h0Z" style="fill:#fff"/><path d="M138.63,70.34H44.77V11.47A1.24,1.24,0,0,1,46,10.23h91.38a1.25,1.25,0,0,1,1.24,1.24h0Z" style="fill:none;stroke:#1a5336;stroke-linecap:square;stroke-miterlimit:10;stroke-width:3px"/><path d="M147.68,74.72H104.61v1a.88.88,0,0,1-.86.86H79.65a.86.86,0,0,1-.85-.86v-1h-43a2.08,2.08,0,0,0-2.08,2.08h0v4.53a2.08,2.08,0,0,0,2.08,2.08H147.64a2,2,0,0,0,2-2V76.68A2,2,0,0,0,147.68,74.72Z" style="fill:#1a5336"/><path d="M113.46,39.91A20.07,20.07,0,1,1,93.39,19.84h0A20.09,20.09,0,0,1,113.46,39.91Z" style="fill:none;stroke:#1e5748;stroke-miterlimit:10;stroke-width:3px"/><polygon points="109.29 58.8 107.54 60.55 102.54 48.34 114.73 53.34 112.98 55.09 116.86 58.98 113.17 62.67 109.29 58.8" style="fill:#1a5336"/><path d="M104.18,50l9,3.67-1.43,1.43L115.59,59l-2.42,2.42-3.88-3.88L107.86,59l-3.68-9m-3.29-3.29,1.63,4,3.67,9,1,2.51,1.91-1.92.16-.15,2.61,2.6,1.27,1.27,1.27-1.27,2.42-2.42L118.14,59l-1.28-1.27-2.61-2.62.16-.15L116.32,53l-2.5-1-8.95-3.67-4-1.63Z" style="fill:#fff"/><path d="M84.13,34.06h18.48a.26.26,0,0,0,.26-.26h0a.24.24,0,0,0-.15-.25l-9.24-4.34h-.22L84,33.55a.27.27,0,0,0-.13.35A.25.25,0,0,0,84.13,34.06Z" style="fill:#1a5336"/><rect x="83.87" y="47.42" width="18.99" height="1.41" style="fill:#1a5336"/><rect x="85.3" y="45.44" width="16.14" height="1.41" style="fill:#1a5336"/><rect x="85.3" y="34.74" width="16.14" height="1.41" style="fill:#1a5336"/><rect x="90.11" y="36.76" width="2.27" height="8.01" style="fill:#1a5336"/><rect x="94.36" y="36.76" width="2.27" height="8.01" style="fill:#1a5336"/><rect x="98.6" y="36.76" width="2.27" height="8.01" style="fill:#1a5336"/><rect x="85.87" y="36.76" width="2.27" height="8.01" style="fill:#1a5336"/><path d="M161.73,22.28a3,3,0,0,1,3,3V80.38a3,3,0,0,1-3,3H135.15a3,3,0,0,1-3-3V25.3a3,3,0,0,1,3-3h26.58m0-1.6H135.15a4.62,4.62,0,0,0-4.62,4.62V80.38A4.62,4.62,0,0,0,135.15,85h26.58a4.62,4.62,0,0,0,4.62-4.62V25.3a4.62,4.62,0,0,0-4.62-4.62Z" style="fill:#fff"/><rect x="134.62" y="24.61" width="28.55" height="57.25" style="fill:#fff"/><path d="M162.77,81.9H136.38a.4.4,0,0,1-.39-.38V75.66h27.17v5.86a.38.38,0,0,1-.38.38Z" style="fill:#00b624"/><rect x="136.23" y="25.99" width="27.17" height="3" style="fill:#00b624"/><line x1="133.78" y1="28.99" x2="163.4" y2="28.99" style="fill:none;stroke:#1a5336;stroke-miterlimit:10;stroke-width:3px"/><line x1="133.78" y1="74.18" x2="163.4" y2="74.18" style="fill:none;stroke:#1a5336;stroke-miterlimit:10;stroke-width:3px"/><rect x="133.78" y="23.78" width="29.62" height="58.12" rx="1.52" style="fill:none;stroke:#1a5336;stroke-miterlimit:10;stroke-width:3px"/><path d="M164.8,25.23V80.32a3,3,0,0,1-3,3H135.19a3,3,0,0,1-3-3V25.23a3,3,0,0,1,3-3h26.59A3,3,0,0,1,164.8,25.23Z" style="fill:#fff"/><rect x="136.14" y="26.07" width="26.5" height="2.25" style="fill:#00b624"/><path d="M162.34,81.8H136.55a.39.39,0,0,1-.39-.38V75.56h26.56v5.86A.38.38,0,0,1,162.34,81.8Z" style="fill:#00b624"/><rect x="133.68" y="23.72" width="29.62" height="58.12" rx="1.52" style="fill:none;stroke:#1a5336;stroke-miterlimit:10;stroke-width:3px"/><line x1="133.68" y1="28.92" x2="163.3" y2="28.92" style="fill:none;stroke:#1a5336;stroke-miterlimit:10;stroke-width:3px"/><line x1="133.68" y1="73.12" x2="163.3" y2="73.12" style="fill:none;stroke:#1a5336;stroke-miterlimit:10;stroke-width:3px"/><rect x="144.8" y="76.26" width="7.39" height="2.19" style="fill:#1a5336"/><path d="M139.65,43V58.82h17.69V43ZM151.3,55.38h-4.14V47.94h2.07v6.11h2c1.37,0,1.95-1,1.95-3.4s-.66-3.19-2-3.19h-4.56v7.89h-2.05v-7.9h-3V46.13h10.23c2.47,0,3.64,1.28,3.64,4.48,0,4.23-1.75,4.74-4.12,4.74Z" style="fill:#00b624"/></g></svg>