<svg xmlns="http://www.w3.org/2000/svg" viewBox="0 0 320 180"><title>manyWaysToBank_smp_300X180</title><g id="FLT_ART_WORKS" data-name="FLT ART WORKS"><g id="FLT_ART_WORKS-2" data-name="FLT ART WORKS"><rect x="37.24" y="73.35" width="31.13" height="60.75" rx="1.6" style="fill:#fff"/><path d="M254.33,133.64l20-20c11-9.91,11.17-27.74,0-38.78a28.23,28.23,0,0,0-39.91.09c-11,11-11.16,28.93,0,38.84Z" style="fill:#fff"/><path d="M208.74,120.38H93V47.76a1.57,1.57,0,0,1,1.57-1.57h112.6a1.58,1.58,0,0,1,1.57,1.57Z" style="fill:#fff"/><path d="M208.74,120.38H93V47.76a1.57,1.57,0,0,1,1.57-1.57h112.6a1.58,1.58,0,0,1,1.57,1.57Z" style="fill:none;stroke:#1a5336;stroke-linecap:square;stroke-miterlimit:10;stroke-width:3.5px"/><path d="M219.9,125.19H166.78v1.21a1.08,1.08,0,0,1-1.06,1.07H136a1.07,1.07,0,0,1-1.07-1.07h0v-1.21H82a2.56,2.56,0,0,0-2.57,2.54v5.68A2.56,2.56,0,0,0,82,136H220a2.42,2.42,0,0,0,2.42-2.42v-5.94a2.42,2.42,0,0,0-2.42-2.42Z" style="fill:#1a5336"/><rect x="37.24" y="73.35" width="31.13" height="60.75" rx="1.6" style="fill:none;stroke:#1b5336;stroke-miterlimit:10;stroke-width:3.5px"/><line x1="37.24" y1="83.7" x2="68.35" y2="83.7" style="fill:none;stroke:#1b5336;stroke-miterlimit:10;stroke-width:3.5px"/><line x1="37.24" y1="120.07" x2="68.35" y2="120.07" style="fill:none;stroke:#1b5336;stroke-miterlimit:10;stroke-width:3.5px"/><rect x="48.75" y="125.19" width="8.08" height="2.73" style="fill:#1b5336"/><path d="M256.62,67.59A26.72,26.72,0,0,0,230,94.39c0,.18,0,.36,0,.54a23.3,23.3,0,0,0,7.81,16.88l18.78,18.71,18.83-18.81a23.6,23.6,0,0,0,7.83-17.23A26.56,26.56,0,0,0,257,67.59h-.4Z" style="fill:#00b624"/><path d="M239,87.27h22.83c5.53,0,8.11,2.67,8.11,9.41,0,8.86-3.86,9.94-9.19,9.94h-9.18V91h4.61v12.89h4.46c3.05,0,4.36-2,4.36-7.13s-1.48-6.7-4.58-6.7H250.25V106.6h-4.58V90H239Z" style="fill:#fff"/><path d="M254.33,133.64l20-20c11-9.91,11.17-27.74,0-38.78a28.23,28.23,0,0,0-39.91.09c-11,11-11.16,28.93,0,38.84Z" style="fill:none;stroke:#1a5336;stroke-miterlimit:10;stroke-width:3.5px"/><polygon points="155.72 79.63 141.12 73.02 147.74 87.62 150.14 85.22 156.66 91.73 159.83 88.55 153.32 82.04 155.72 79.63" style="fill:#1a5336"/></g></g></svg>